<svg width="17" height="17" viewBox="0 0 17 17" fill="none" xmlns="http://www.w3.org/2000/svg">
<path d="M14.6022 0.583334H2.39783C1.39716 0.583334 0.583328 1.39717 0.583328 2.39783V14.6022C0.583328 15.6028 1.39716 16.4167 2.39783 16.4167H14.6022C15.6028 16.4167 16.4167 15.6028 16.4167 14.6022V2.39783C16.4167 1.39717 15.6028 0.583334 14.6022 0.583334ZM15.2292 14.6022C15.2292 14.9481 14.9481 15.2292 14.6022 15.2292H2.39783C2.05187 15.2292 1.77083 14.9481 1.77083 14.6022V4.08092C1.77083 3.73496 2.05108 3.4555 2.39624 3.45392H14.6037C14.9489 3.45392 15.2292 3.73496 15.2292 4.07933V14.6038V14.6022Z" fill="#8899A6"/>
<path d="M4.56702 6.94431C5.12885 6.94431 5.58431 6.48885 5.58431 5.92702C5.58431 5.36518 5.12885 4.90973 4.56702 4.90973C4.00519 4.90973 3.54973 5.36518 3.54973 5.92702C3.54973 6.48885 4.00519 6.94431 4.56702 6.94431Z" fill="#8899A6"/>
<path d="M4.56702 10.4324C5.12885 10.4324 5.58431 9.97694 5.58431 9.4151C5.58431 8.85327 5.12885 8.39781 4.56702 8.39781C4.00519 8.39781 3.54973 8.85327 3.54973 9.4151C3.54973 9.97694 4.00519 10.4324 4.56702 10.4324Z" fill="#8899A6"/>
<path d="M12.433 6.94431C12.9948 6.94431 13.4503 6.48885 13.4503 5.92702C13.4503 5.36518 12.9948 4.90973 12.433 4.90973C11.8712 4.90973 11.4157 5.36518 11.4157 5.92702C11.4157 6.48885 11.8712 6.94431 12.433 6.94431Z" fill="#8899A6"/>
<path d="M12.433 10.4324C12.9948 10.4324 13.4503 9.97694 13.4503 9.4151C13.4503 8.85327 12.9948 8.39781 12.433 8.39781C11.8712 8.39781 11.4157 8.85327 11.4157 9.4151C11.4157 9.97694 11.8712 10.4324 12.433 10.4324Z" fill="#8899A6"/>
<path d="M8.50003 6.94431C9.06187 6.94431 9.51733 6.48885 9.51733 5.92702C9.51733 5.36518 9.06187 4.90973 8.50003 4.90973C7.9382 4.90973 7.48274 5.36518 7.48274 5.92702C7.48274 6.48885 7.9382 6.94431 8.50003 6.94431Z" fill="#8899A6"/>
<path d="M8.50003 10.4324C9.06187 10.4324 9.51733 9.97694 9.51733 9.4151C9.51733 8.85327 9.06187 8.39781 8.50003 8.39781C7.9382 8.39781 7.48274 8.85327 7.48274 9.4151C7.48274 9.97694 7.9382 10.4324 8.50003 10.4324Z" fill="#8899A6"/>
<path d="M4.56702 13.8604C5.12885 13.8604 5.58431 13.4049 5.58431 12.8431C5.58431 12.2812 5.12885 11.8258 4.56702 11.8258C4.00519 11.8258 3.54973 12.2812 3.54973 12.8431C3.54973 13.4049 4.00519 13.8604 4.56702 13.8604Z" fill="#8899A6"/>
<path d="M8.50003 13.8604C9.06187 13.8604 9.51733 13.4049 9.51733 12.8431C9.51733 12.2812 9.06187 11.8258 8.50003 11.8258C7.9382 11.8258 7.48274 12.2812 7.48274 12.8431C7.48274 13.4049 7.9382 13.8604 8.50003 13.8604Z" fill="#8899A6"/>
</svg>
