<svg width="15" height="17" viewBox="0 0 15 17" fill="none" xmlns="http://www.w3.org/2000/svg">
<path d="M7.50003 10.3327C5.84702 10.3327 4.50198 8.98841 4.50198 7.33541C4.50198 5.68241 5.84782 4.33578 7.50003 4.33578C9.15223 4.33578 10.4981 5.68162 10.4981 7.33383C10.4981 8.98604 9.15223 10.3303 7.50003 10.3303V10.3327ZM7.50003 5.52487C6.50253 5.52487 5.68948 6.33712 5.68948 7.33541C5.68948 8.3337 6.50253 9.14437 7.50003 9.14437C8.49752 9.14437 9.31057 8.33291 9.31057 7.33462C9.31057 6.33633 8.49752 5.52328 7.50003 5.52328V5.52487Z" fill="#8899A6"/>
<path d="M14.3812 7.46292C14.3812 3.67083 11.2937 0.583334 7.5 0.583334C3.70634 0.583334 0.618835 3.67083 0.618835 7.46292C0.618835 8.96867 1.09621 10.3984 1.99871 11.5978L2.00109 11.5962L2.00663 11.6081C3.29546 13.2468 6.97671 16.1657 7.13267 16.2884C7.24192 16.3755 7.37175 16.4175 7.50079 16.4175C7.62984 16.4175 7.75967 16.3755 7.86892 16.2892C8.02488 16.1665 11.7061 13.2492 12.995 11.6089L13.0005 11.5978L13.0021 11.5994C13.9046 10.3992 14.3812 8.97104 14.3812 7.4645V7.46292ZM7.5 15.0629C6.531 14.2792 3.92167 12.1219 2.94317 10.879C2.199 9.88938 1.80634 8.70821 1.80634 7.46529C1.80634 4.32554 4.36104 1.77083 7.5 1.77083C10.639 1.77083 13.1937 4.32475 13.1937 7.46292C13.1937 8.70583 12.8002 9.887 12.0568 10.8774C11.0783 12.1203 8.469 14.2768 7.5 15.0613V15.0629Z" fill="#8899A6"/>
</svg>
